<svg width="258" height="154" xmlns="http://www.w3.org/2000/svg">

 <g>
  <title>background</title>
  <rect fill="none" id="canvas_background" height="156" width="260" y="-1" x="-1"/>
 </g>
 <g>
  <title>Layer 1</title>
  <g id="svg_1">
   <g id="svg_2">
    <path id="svg_3" d="m49.074,71.006c-2.368,-0.915 -4.705,-2.045 -6.997,-3.425c-4.553,-2.749 -7.356,-5.469 -8.106,-6.236c-1.321,-1.379 -2.012,-3.152 -1.971,-5.023c0.041,-1.87 0.806,-3.611 2.157,-4.904c1.308,-1.253 3.028,-1.945 4.84,-1.945c1.921,0 3.712,0.764 5.044,2.146l0.214,0.208c0.212,0.199 0.551,0.506 1.001,0.886c0.845,0.708 2.235,1.786 4.045,2.876c0.842,0.509 1.829,1.041 2.92,1.55c0.516,-5.691 -2.175,-11.33 -7.388,-12.432c-0.002,0 -0.005,-0.001 -0.007,-0.001c-0.614,-0.425 -1.319,-0.732 -2.107,-0.848c-0.178,-0.025 -2.545,-0.364 -6.111,-0.367c-5.339,0.026 -13.421,0.695 -20.929,4.857c-3.736,2.086 -7.306,5.125 -9.965,9.336c-2.668,4.208 -4.364,9.509 -4.707,15.845c-0.154,2.756 1.955,5.116 4.715,5.268c0.095,0.006 0.19,0.008 0.284,0.008c2.632,0.001 4.838,-2.061 4.985,-4.723c0.281,-4.915 1.505,-8.401 3.173,-11.052c2.498,-3.941 6.204,-6.279 10.419,-7.728c0.546,-0.187 1.099,-0.354 1.654,-0.507c-0.251,0.513 -0.493,1.04 -0.711,1.595c-5.23,13.49 -6.449,22.238 -4.779,36.986c0.089,0.446 0.192,0.87 0.302,1.284c0.118,1.099 0.458,2.19 1.056,3.205l0,-0.002l0.002,-0.002c0.352,0.564 3.82,7.34 3.757,14.851c-0.011,3.731 -0.744,7.592 -2.903,11.517c-2.173,3.917 -5.835,8.061 -12.434,12.064c-3.782,2.283 -4.996,7.201 -2.71,10.984c1.503,2.488 4.147,3.864 6.856,3.864c1.409,0 2.836,-0.372 4.131,-1.154c8.608,-5.188 14.544,-11.439 18.167,-18.029c3.64,-6.581 4.901,-13.337 4.892,-19.246c-0.01,-1.551 -0.101,-3.043 -0.247,-4.477c0.408,0.448 0.817,0.91 1.223,1.395c4.367,5.195 8.134,12.036 8.106,19.812c-0.004,3.301 -0.636,6.887 -2.327,10.943c-1.706,4.075 0.214,8.762 4.291,10.469c1.009,0.422 2.056,0.622 3.085,0.622c3.129,0 6.101,-1.848 7.383,-4.913c2.472,-5.898 3.575,-11.696 3.568,-17.121c-0.032,-13.444 -6.478,-23.882 -12.421,-30.766c-2.813,-3.243 -5.568,-5.775 -7.753,-7.59c-0.27,-6.624 0.903,-13.674 2.303,-20.08z"/>
    <polygon id="svg_4" points="35.388999938964844,59.93400192260742 35.38800048828125,59.93199920654297 35.387001037597656,59.930999755859375 "/>
    <path id="svg_5" d="m43.968,54.242c-0.489,-0.411 -0.855,-0.745 -1.084,-0.962c-0.116,-0.109 -0.197,-0.188 -0.242,-0.233c-0.022,-0.021 -0.035,-0.036 -0.042,-0.041c-1.91,-1.985 -5.068,-2.051 -7.059,-0.143c-1.994,1.907 -2.063,5.071 -0.153,7.068c0.217,0.222 2.951,3.057 7.721,5.937c4.763,2.866 11.655,5.821 20.052,5.829c0.02,0 0.039,0 0.058,0c6.27,0.001 13.292,-1.735 20.405,-6.136c2.351,-1.45 3.081,-4.531 1.63,-6.88c-1.448,-2.35 -4.529,-3.081 -6.879,-1.63c-5.684,3.49 -10.713,4.634 -15.214,4.645c-5.979,0.009 -11.169,-2.148 -14.89,-4.395c-1.856,-1.116 -3.326,-2.241 -4.303,-3.059z"/>
    <circle id="svg_6" r="17.5" cy="25.629" cx="58.641"/>
   </g>
   <g id="svg_7">
    <circle id="svg_8" r="16" cy="25.443" cx="122.906"/>
    <path id="svg_9" d="m108.346,60.992c-2.408,-3.107 -1.851,-7.513 1.201,-9.879c1.238,-0.961 2.72,-1.469 4.285,-1.469c2.168,0 4.178,0.978 5.514,2.686l0.167,0.197c0.173,0.203 0.448,0.506 0.819,0.881c0.716,0.728 1.893,1.819 3.435,2.908c3.846,2.722 7.925,4.099 12.127,4.099c4.319,-0.011 8.652,-1.394 13.267,-4.229c0.436,-0.268 0.902,-0.472 1.381,-0.639c1.342,-1.81 2.643,-3.857 3.905,-6.188c1.313,-2.431 0.407,-5.465 -2.021,-6.777c-2.428,-1.312 -5.462,-0.408 -6.776,2.021c-2.625,4.862 -5.177,7.769 -7.31,9.365c-2.154,1.591 -3.807,2.004 -5.43,2.025c-2.113,0.049 -4.536,-0.995 -6.723,-2.505c-2.912,-5.953 -6.937,-9.783 -12.438,-9.783c-18.924,0 -25.998,42.303 -27.365,63.732c-0.076,1.2 3.945,2.305 9.648,3.16c-1.097,7.362 -4.43,17.606 -13.342,30.313c-2.065,2.936 -1.36,6.992 1.577,9.058c1.137,0.799 2.442,1.183 3.733,1.183c2.045,0 4.058,-0.962 5.324,-2.762c10.182,-14.449 14.326,-26.961 15.658,-36.46c1.388,0.092 2.778,0.169 4.152,0.229c1.085,4.613 1.897,10.318 1.898,17.07c0,4.271 -0.327,8.971 -1.118,14.096c-0.547,3.549 1.884,6.868 5.432,7.415c0.337,0.052 0.672,0.077 1.003,0.077c3.152,0 5.918,-2.298 6.415,-5.507c0.891,-5.781 1.267,-11.148 1.267,-16.081c0,-6.473 -0.65,-12.171 -1.609,-17.077c3.808,-0.262 6.31,-0.822 6.369,-1.753c0.602,-9.433 0.65,-23.485 -1.098,-36.262c-6.932,-0.903 -12.421,-3.847 -16.015,-6.391c-4.031,-2.864 -6.47,-5.676 -7.332,-6.753z"/>
    <path id="svg_10" d="m135.972,72.42c5.92,0 12.578,-1.747 19.485,-6.018c2.351,-1.45 3.081,-4.531 1.633,-6.88c-1.448,-2.351 -4.53,-3.081 -6.88,-1.633c-5.577,3.427 -10.272,4.517 -14.292,4.527c-5.526,0.005 -10.056,-2.17 -13.304,-4.467c-1.613,-1.141 -2.874,-2.295 -3.703,-3.135c-0.415,-0.421 -0.722,-0.761 -0.913,-0.981c-0.094,-0.109 -0.161,-0.188 -0.197,-0.231c-0.007,-0.011 -0.014,-0.019 -0.019,-0.024c-0.01,-0.013 -0.011,-0.015 -0.011,-0.015l-0.001,0c-1.696,-2.166 -4.825,-2.558 -7,-0.87c-2.184,1.693 -2.582,4.834 -0.889,7.016c0.208,0.259 2.576,3.295 6.953,6.404c4.36,3.088 10.872,6.3 19.083,6.306c0.019,0.001 0.038,0.001 0.055,0.001z"/>
   </g>
   <g id="svg_11">
    <circle id="svg_12" r="17.5" cy="24.156" cx="201.665"/>
    <path id="svg_13" d="m212.746,61.23c4.213,0.693 10.521,1.473 17.635,1.478c7.405,-0.007 15.707,-0.835 23.519,-3.701c2.592,-0.954 3.917,-3.829 2.965,-6.418c-0.955,-2.593 -3.829,-3.919 -6.419,-2.965c-6.193,2.29 -13.43,3.091 -20.064,3.084c-5.689,0.002 -10.927,-0.569 -14.706,-1.141c-1.89,-0.284 -3.416,-0.569 -4.454,-0.779c-0.409,-0.082 -0.72,-0.148 -0.971,-0.204c-0.001,-0.001 -0.003,-0.002 -0.004,-0.002c-6.878,-2.311 -13.757,-4.621 -20.635,-6.932c-0.373,-0.144 -3.875,-1.659 -7.103,-4.802c-3.37,-3.327 -6.479,-8.037 -6.513,-15.602c0,-3.676 0.768,-8.102 2.85,-13.423c1.007,-2.57 -0.261,-5.472 -2.831,-6.478c-2.571,-1.007 -5.473,0.261 -6.48,2.833c-2.467,6.296 -3.54,11.985 -3.54,17.068c-0.036,10.934 5.086,18.691 10.023,23.226c2.471,2.293 4.892,3.887 6.743,4.929c-2.666,15.593 -2.402,31.688 0.811,47.181c0.011,0.053 0.033,0.098 0.045,0.148c0.071,1.018 0.119,2.165 0.119,3.429c-0.027,8.568 -2.057,22.116 -13.119,36.316c-2.721,3.481 -2.103,8.51 1.382,11.23c1.462,1.142 3.195,1.694 4.916,1.694c2.381,0 4.736,-1.057 6.315,-3.078c13.653,-17.46 16.534,-35.021 16.507,-46.162c-0.001,-1.261 -0.038,-2.435 -0.097,-3.531c0.194,-0.065 0.389,-0.13 0.583,-0.195c1.238,1.337 2.893,3.327 4.473,5.87c2.896,4.651 5.521,10.963 5.521,18.762c-0.005,4.877 -1.006,10.427 -3.852,16.826c-1.8,4.035 0.015,8.766 4.051,10.564c1.058,0.472 2.163,0.694 3.251,0.694c3.063,0 5.986,-1.768 7.314,-4.745c3.705,-8.303 5.245,-16.203 5.236,-23.34c0,-12.254 -4.437,-21.978 -8.76,-28.494c-1.343,-2.024 -2.678,-3.758 -3.895,-5.2c-1.821,-9.252 -2.087,-18.798 -0.816,-28.14z"/>
   </g>
  </g>
 </g>
</svg>