<svg width="102" height="105" xmlns="http://www.w3.org/2000/svg">

 <g>
  <title>background</title>
  <rect fill="none" id="canvas_background" height="107" width="104" y="-1" x="-1"/>
 </g>
 <g>
  <title>Layer 1</title>
  <g id="svg_1">
   <g id="svg_2">
    <g id="svg_3">
     <path id="svg_4" d="m28.296,18.772c3.649,-3.507 3.769,-9.303 0.258,-12.958c-3.503,-3.646 -9.303,-3.767 -12.953,-0.258c-3.658,3.51 -3.772,9.306 -0.269,12.958c3.508,3.651 9.31,3.772 12.964,0.258z"/>
     <path id="svg_5" d="m41.296,26.622c-12.605,-5.78 -19.875,-4.527 -23.717,-2.536c1.634,-0.506 3.527,-0.787 5.534,-0.787c3.426,0 6.382,0.818 8.113,2.246l11.174,10.207c2,1.518 2.754,4.19 1.834,6.535l-8.122,17.213l-3.979,-1.563c-0.013,0.123 -0.028,0.248 -0.045,0.371l0.805,15.28c11.172,17.543 29.996,26.284 29.996,26.284s0.981,-13.612 10.848,-16.514c9.863,-2.904 18.941,-7.729 19.105,-21.235c0.249,-20.146 5.703,-25.655 5.703,-25.655c-8.086,2.836 -40.193,-2.029 -57.249,-9.846z"/>
     <path id="svg_6" d="m30.327,58.305c0.021,-0.221 0.07,-0.434 0.071,-0.658l0.018,-2.261l4.814,1.886l7.375,-15.623c0.643,-1.641 0.102,-3.507 -1.321,-4.546l-11.17,-10.207c-3.175,-2.619 -11.502,-2.331 -14.65,0.106l-10.466,9.403c-1.314,0.992 -1.861,2.703 -1.361,4.272l6.293,15.962l4.98,-1.584l-0.02,2.473c-0.003,0.488 0.05,0.966 0.134,1.43l-4.272,16.644c-0.107,0.422 -0.156,0.859 -0.148,1.299l0.543,25.865l9.691,-0.205l-0.53,-25.205l1.098,-4.271l0.413,7.777c0.004,0.06 0.008,0.117 0.014,0.18l1.98,21.958l9.652,-0.87l-1.971,-21.874l-1.167,-21.951zm0.844,-19.559l3.126,2.851l-3.875,12.875l0.749,-15.726zm-19.314,2.201l2.579,-2.32l0.48,15.559l-3.059,-13.239zm15.031,2.008l-3.804,-2.776l-3.804,2.776l1.462,-4.475l-3.814,-2.762l4.709,0.011l1.447,-4.482l1.445,4.482l4.711,-0.011l-3.815,2.762l1.463,4.475z"/>
    </g>
   </g>
  </g>
 </g>
</svg>