<svg width="160" height="160" xmlns="http://www.w3.org/2000/svg">
 <g>
  <title>background</title>
  <rect x="-1" y="-1" width="162" height="162" id="canvas_background" fill="none"/>
 </g>

 <g>
  <title>Layer 1</title>
  <g stroke="null" id="svg_1">
   <g stroke="null" id="svg_2">
    <g stroke="null" id="svg_3">
     <path stroke="null" d="m44.664486,25.739546c5.759555,-5.535424 5.948963,-14.683788 0.407225,-20.452814c-5.52911,-5.75482 -14.683788,-5.945806 -20.444922,-0.407225c-5.773761,5.540159 -5.953698,14.688524 -0.424588,20.452814c5.537002,5.762712 14.694837,5.953698 20.462284,0.407225z" id="svg_4"/>
     <path stroke="null" d="m65.183593,38.12993c-19.895641,-9.12311 -31.370557,-7.145384 -37.434742,-4.002804c2.579094,-0.798667 5.566991,-1.242195 8.734826,-1.242195c5.407574,0 10.073303,1.291125 12.805501,3.54507l17.636961,16.110655c3.156786,2.396 4.346894,6.613466 2.894772,10.314797l-12.819706,27.168876l-6.280425,-2.467028c-0.020519,0.194142 -0.044195,0.391441 -0.071028,0.585584l1.270606,24.117842c17.633805,27.689745 47.345471,41.486477 47.345471,41.486477s1.548403,-21.485083 17.122405,-26.065579c15.567688,-4.583653 29.896338,-12.199398 30.155195,-33.517171c0.39302,-31.798302 9.001574,-40.493668 9.001574,-40.493668c-12.762884,4.476322 -63.440343,-3.202559 -90.36141,-15.540856z" id="svg_5"/>
     <path stroke="null" d="m47.870202,88.138149c0.033146,-0.348825 0.110487,-0.685022 0.112066,-1.038582l0.028411,-3.568746l7.598383,2.976849l11.640647,-24.659231c1.014907,-2.590143 0.160996,-5.535424 -2.085057,-7.175374l-17.630648,-16.110655c-5.011397,-4.133811 -18.154674,-3.679234 -23.123455,0.16731l-16.519459,14.841628c-2.074008,1.565766 -2.937389,4.266396 -2.148193,6.742894l9.932826,25.194306l7.860396,-2.500174l-0.031568,3.903365c-0.004735,0.770256 0.07892,1.524727 0.211505,2.257102l-6.742894,26.27077c-0.168888,0.666082 -0.246229,1.355839 -0.233602,2.050332l0.857067,40.82513l15.296205,-0.323571l-0.836548,-39.783391l1.733075,-6.741316l0.651876,12.275161c0.006314,0.094704 0.012627,0.184672 0.022097,0.284111l3.125218,34.658349l15.234647,-1.373202l-3.111012,-34.525764l-1.841984,-34.647301zm1.332164,-30.871785l4.934056,4.499998l-6.116272,20.321808l1.182216,-24.821805zm-30.485079,3.474043l4.070675,-3.661871l0.757629,24.558214l-4.828304,-20.896343zm23.724822,3.169413l-6.004206,-4.381618l-6.004206,4.381618l2.30761,-7.063308l-6.01999,-4.359521l7.432652,0.017362l2.283934,-7.074357l2.280778,7.074357l7.435809,-0.017362l-6.021569,4.359521l2.309189,7.063308z" id="svg_6"/>
    </g>
   </g>
  </g>
 </g>
</svg>