<svg width="250" height="250" xmlns="http://www.w3.org/2000/svg">
 <!-- Created with Method Draw - http://github.com/duopixel/Method-Draw/ -->

 <g>
  <title>background</title>
  <!-- <rect fill="none" id="canvas_background" height="252" width="252" y="-1" x="-1"/> -->
  <g display="none" overflow="visible" y="0" x="0" height="100%" width="100%" id="canvasGrid">
   <rect fill="url(#gridpattern)" stroke-width="0" y="0" x="0" height="100%" width="100%"/>
  </g>
 </g>
 <g>
  <title>Layer 1</title>
  <g stroke="null" id="svg_7">
   <g stroke="null" transform="matrix(3.429355166740052,0,0,3.429355166740052,0,0) " id="svg_4">
    <path stroke="null" id="svg_5" d="m34.8,27.6c-0.6,0 -1,-0.4 -1.3,-0.9s-0.2,-1.1 -0.2,-1.6c0.1,-1.6 0.4,-3.1 0.6,-4.7c0.2,-2.5 -0.3,-5 -1.4,-7.3c-0.1,-0.3 -0.3,-0.6 -0.5,-0.8c-0.2,-0.7 -0.5,-1.4 -0.9,-2c-1,-1.4 -2.8,-2.3 -4.4,-1.6c-0.2,0.1 -0.4,0.2 -0.7,0.2c-0.2,0 -0.4,-0.2 -0.6,-0.3c-0.8,-0.5 -1.8,-0.5 -2.6,-0.1c-0.9,0.3 -1.6,0.9 -2.2,1.6c-0.4,0.4 -0.7,0.8 -1,1.2c-0.6,0.5 -1,1.1 -1.3,1.8c-0.1,0.1 -0.1,0.2 -0.2,0.3c0,0 0,0 0,0l0,0c-1,2.2 -1.4,4.6 -1.2,6.9c0.1,1.6 0.5,3.1 0.6,4.7c0,0.6 0,1.1 -0.2,1.6c-0.2,0.5 -0.7,0.9 -1.3,0.9c-0.3,0 -0.7,-0.1 -0.9,0.2c-0.1,0.1 -0.1,0.3 -0.1,0.4c0,1.2 1.1,2.4 2.3,2.5c0.6,0.1 1.2,-0.1 1.8,-0.3c1,-0.3 2,-0.5 3,-0.9c0.7,-0.3 1.3,-0.7 1.7,-1.3c0.1,-0.2 0.2,-0.4 0.2,-0.5c0.5,0.1 1.1,0.2 1.7,0.2c0.4,0 0.8,0 1.1,-0.1c0.1,0.2 0.1,0.3 0.2,0.4c0.4,0.6 1,1 1.7,1.3c1,0.4 2,0.7 3,0.9c0.6,0.2 1.2,0.3 1.8,0.3c1.2,-0.1 2.3,-1.3 2.3,-2.5c0,-0.1 0,-0.3 -0.1,-0.4c-0.2,-0.2 -0.6,-0.1 -0.9,-0.1zm-9.2,-1.9c-3.3,0 -5.9,-2.9 -5.9,-6.4c0,-0.5 0.1,-1 0.2,-1.5c0,-0.1 0,-0.1 0.1,-0.1c0.8,-0.5 1.7,-0.9 2.7,-1c0.6,-0.1 1.2,-0.1 1.7,-0.4c0.9,-0.4 1.6,-1.3 1.9,-2.3c0.1,-0.2 0.4,-0.2 0.4,0c0.3,1.2 1,2.4 2.1,3.1c0.4,0.3 0.8,0.5 1.3,0.7c0.5,0.3 1,0.8 1.4,1.3c0,0.1 0,0.1 0.1,0.2c0,3.5 -2.7,6.4 -6,6.4z" fill="#000000"/>
    <path stroke="null" id="svg_6" d="m66.5,55.2l-19.4,-16.5c-0.6,-0.5 -0.7,-1.3 -0.3,-2c5,-9.3 3.6,-21.2 -4.2,-29.1c-10.4,-10.1 -27.5,-9.4 -36.8,2.2c-7.1,8.9 -7.1,21.8 0,30.6c7.7,9.6 20.8,11.7 30.9,6.3c0.7,-0.4 1.5,-0.2 1.9,0.3l16.5,19.5c6,6.1 10.5,6 13.9,2.6c3.5,-3.3 3.8,-7.7 -2.5,-13.9zm-28.2,-16.9c0,0 -0.1,0 0,0c-0.5,-1.4 -1.1,-2.7 -1.7,-3.7c-1.1,-1.5 -4.1,-2.5 -6.7,-3.1c-0.2,0 -0.4,0 -0.5,0.2l-2.4,2.4c-0.1,0.1 -0.2,0.3 -0.2,0.5l0.8,9c-1.4,0.2 -2.8,0.2 -4.2,0.1l0.8,-9c0,-0.2 -0.1,-0.4 -0.2,-0.5l-2.4,-2.4c-0.1,-0.1 -0.3,-0.2 -0.5,-0.2c-2.6,0.6 -5.6,1.6 -6.7,3.1c-0.7,1 -1.3,2.5 -1.8,4c-0.1,-0.1 -0.3,-0.3 -0.4,-0.4c-7.3,-7.3 -7.3,-19.1 0,-26.4c7.3,-7.3 19.1,-7.3 26.4,0c6.9,7.3 6.9,19.1 -0.3,26.4z" fill="#000000"/>
   </g>
  </g>
 </g>
</svg>
