<svg width="160" height="160" xmlns="http://www.w3.org/2000/svg">
 <!-- Created with Method Draw - http://github.com/duopixel/Method-Draw/ -->

 <g>
  <title>background</title>
  <!-- <rect fill="none" id="canvas_background" height="252" width="252" y="-1" x="-1"/> -->
  <g id="canvasGrid" display="none">
   <rect id="svg_1" width="100%" height="100%" x="0" y="0" stroke-width="0" fill="url(#gridpattern)"/>
  </g>
 </g>
 <g>
  <title>Layer 1</title>
  <g stroke="null" id="svg_7">
   <g stroke="null" id="svg_4">
    <path stroke="null" fill="#000000" d="m77.411615,61.651741c-1.30989,0 -2.18315,-0.87326 -2.838095,-1.964835s-0.43663,-2.401465 -0.43663,-3.49304c0.218315,-3.49304 0.87326,-6.767765 1.30989,-10.260805c0.43663,-5.457875 -0.654945,-10.91575 -3.05641,-15.936994c-0.218315,-0.654945 -0.654945,-1.30989 -1.091575,-1.74652c-0.43663,-1.528205 -1.091575,-3.05641 -1.964835,-4.3663c-2.18315,-3.05641 -6.11282,-5.021245 -9.60586,-3.49304c-0.43663,0.218315 -0.87326,0.43663 -1.528205,0.43663c-0.43663,0 -0.87326,-0.43663 -1.30989,-0.654945c-1.74652,-1.091575 -3.92967,-1.091575 -5.67619,-0.218315c-1.964835,0.654945 -3.49304,1.964835 -4.80293,3.49304c-0.87326,0.87326 -1.528205,1.74652 -2.18315,2.61978c-1.30989,1.091575 -2.18315,2.401465 -2.838095,3.92967c-0.218315,0.218315 -0.218315,0.43663 -0.43663,0.654945c0,0 0,0 0,0l0,0c-2.18315,4.80293 -3.05641,10.04249 -2.61978,15.063734c0.218315,3.49304 1.091575,6.767765 1.30989,10.260805c0,1.30989 0,2.401465 -0.43663,3.49304c-0.43663,1.091575 -1.528205,1.964835 -2.838095,1.964835c-0.654945,0 -1.528205,-0.218315 -1.964835,0.43663c-0.218315,0.218315 -0.218315,0.654945 -0.218315,0.87326c0,2.61978 2.401465,5.23956 5.021245,5.457875c1.30989,0.218315 2.61978,-0.218315 3.92967,-0.654945c2.18315,-0.654945 4.3663,-1.091575 6.54945,-1.964835c1.528205,-0.654945 2.838095,-1.528205 3.711355,-2.838095c0.218315,-0.43663 0.43663,-0.87326 0.43663,-1.091575c1.091575,0.218315 2.401465,0.43663 3.711355,0.43663c0.87326,0 1.74652,0 2.401465,-0.218315c0.218315,0.43663 0.218315,0.654945 0.43663,0.87326c0.87326,1.30989 2.18315,2.18315 3.711355,2.838095c2.18315,0.87326 4.3663,1.528205 6.54945,1.964835c1.30989,0.43663 2.61978,0.654945 3.92967,0.654945c2.61978,-0.218315 5.021245,-2.838095 5.021245,-5.457875c0,-0.218315 0,-0.654945 -0.218315,-0.87326c-0.43663,-0.43663 -1.30989,-0.218315 -1.964835,-0.218315zm-20.084979,-4.147985c-7.204395,0 -12.880584,-6.331135 -12.880584,-13.972159c0,-1.091575 0.218315,-2.18315 0.43663,-3.274725c0,-0.218315 0,-0.218315 0.218315,-0.218315c1.74652,-1.091575 3.711355,-1.964835 5.894505,-2.18315c1.30989,-0.218315 2.61978,-0.218315 3.711355,-0.87326c1.964835,-0.87326 3.49304,-2.838095 4.147985,-5.021245c0.218315,-0.43663 0.87326,-0.43663 0.87326,0c0.654945,2.61978 2.18315,5.23956 4.584615,6.767765c0.87326,0.654945 1.74652,1.091575 2.838095,1.528205c1.091575,0.654945 2.18315,1.74652 3.05641,2.838095c0,0.218315 0,0.218315 0.218315,0.43663c0,7.641025 -5.894505,13.972159 -13.098899,13.972159z" id="svg_5"/>
    <path stroke="null" fill="#000000" d="m146.617467,121.906679l-42.353108,-36.021973c-1.30989,-1.091575 -1.528205,-2.838095 -0.654945,-4.3663c10.91575,-20.303294 7.85934,-46.282778 -9.16923,-63.529662c-22.704759,-22.049814 -60.036622,-20.521609 -80.339916,4.80293c-15.500364,19.430034 -15.500364,47.592668 0,66.804387c16.810254,20.958239 45.409518,25.542854 67.459332,13.753844c1.528205,-0.87326 3.274725,-0.43663 4.147985,0.654945l36.021973,42.571423c13.098899,13.317214 22.923074,13.098899 30.345784,5.67619c7.641025,-7.204395 8.29597,-16.810254 -5.457875,-30.345784zm-61.564827,-36.895233c0,0 -0.218315,0 0,0c-1.091575,-3.05641 -2.401465,-5.894505 -3.711355,-8.077655c-2.401465,-3.274725 -8.950915,-5.457875 -14.627104,-6.767765c-0.43663,0 -0.87326,0 -1.091575,0.43663l-5.23956,5.23956c-0.218315,0.218315 -0.43663,0.654945 -0.43663,1.091575l1.74652,19.648349c-3.05641,0.43663 -6.11282,0.43663 -9.16923,0.218315l1.74652,-19.648349c0,-0.43663 -0.218315,-0.87326 -0.43663,-1.091575l-5.23956,-5.23956c-0.218315,-0.218315 -0.654945,-0.43663 -1.091575,-0.43663c-5.67619,1.30989 -12.225639,3.49304 -14.627104,6.767765c-1.528205,2.18315 -2.838095,5.457875 -3.92967,8.7326c-0.218315,-0.218315 -0.654945,-0.654945 -0.87326,-0.87326c-15.936994,-15.936994 -15.936994,-41.698163 0,-57.635157c15.936994,-15.936994 41.698163,-15.936994 57.635157,0c15.063734,15.936994 15.063734,41.698163 -0.654945,57.635157z" id="svg_6"/>
   </g>
  </g>
 </g>
 <g>
  <title>background</title>
  <rect fill="none" id="canvas_background" height="162" width="162" y="-1" x="-1"/>
 </g>
</svg>