<svg width="280" height="160" xmlns="http://www.w3.org/2000/svg">
 <g>
  <title>background</title>
  <rect x="-1" y="-1" width="282" height="162" id="canvas_background" fill="none"/>
 </g>

 <g>
  <title>Layer 1</title>
  <g stroke="null" id="svg_1">
   <g stroke="null" id="svg_2">
    <path stroke="null" d="m54.451967,73.784463c-2.534387,-0.979292 -5.035595,-2.188691 -7.488642,-3.665656c-4.872915,-2.942157 -7.872867,-5.853277 -8.675565,-6.67417c-1.41382,-1.475895 -2.153372,-3.373474 -2.109492,-5.375939c0.043881,-2.001395 0.862633,-3.864726 2.308561,-5.248578c1.399906,-1.341042 3.240761,-2.081665 5.180081,-2.081665c2.055978,0 3.972822,0.817682 5.398415,2.296788l0.229037,0.222615c0.226896,0.212983 0.589716,0.541554 1.071335,0.948254c0.904374,0.757747 2.392041,1.911493 4.32922,3.078081c0.901163,0.544765 1.957514,1.114145 3.125173,1.65891c0.552257,-6.090876 -2.327826,-12.126098 -7.907115,-13.30553c-0.002141,0 -0.005351,-0.00107 -0.007492,-0.00107c-0.657142,-0.454862 -1.411679,-0.783434 -2.255048,-0.907584c-0.190507,-0.026757 -2.723824,-0.389576 -6.540387,-0.392787c-5.714143,0.027827 -14.364022,0.743834 -22.399569,5.198275c-3.998509,2.232572 -7.819353,5.485106 -10.665187,9.991991c-2.855466,4.503674 -4.670635,10.177146 -5.037736,16.958343c-0.164821,2.949649 2.092367,5.475474 5.046298,5.638154c0.101675,0.006422 0.20335,0.008562 0.303955,0.008562c2.816937,0.00107 5.17794,-2.205815 5.335269,-5.05486c0.300744,-5.260351 1.610748,-8.991293 3.39595,-11.828565c2.673521,-4.217913 6.639922,-6.720192 11.151087,-8.271005c0.584364,-0.200139 1.176221,-0.378874 1.770218,-0.542624c-0.268636,0.549046 -0.52764,1.113075 -0.760958,1.707072c-5.597484,14.43787 -6.902137,23.800545 -5.114795,39.584808c0.095254,0.477338 0.205491,0.93113 0.32322,1.37422c0.126291,1.176221 0.490181,2.34388 1.130199,3.430198l0,-0.002141l0.002141,-0.002141c0.376733,0.603629 4.088411,7.855742 4.020984,15.8945c-0.011773,3.993157 -0.796277,8.125449 -3.106978,12.326238c-2.325685,4.192227 -6.244994,8.627403 -13.307671,12.911673c-4.047741,2.443414 -5.347042,7.706976 -2.900417,11.755787c1.608608,2.662818 4.438387,4.135503 7.337734,4.135503c1.508003,0 3.035271,-0.398138 4.421263,-1.235085c9.212838,-5.552533 15.565929,-12.242757 19.443498,-19.295801c3.895763,-7.043412 5.245367,-14.27412 5.235735,-20.598313c-0.010703,-1.65998 -0.108097,-3.256815 -0.264355,-4.791575c0.436668,0.479479 0.874406,0.973941 1.308934,1.493019c4.673846,5.560025 8.705533,12.881705 8.675565,21.204083c-0.004281,3.532944 -0.680688,7.370913 -2.490506,11.711906c-1.825871,4.361328 0.229037,9.377659 4.592506,11.204601c1.079897,0.451652 2.200464,0.665705 3.301766,0.665705c3.348858,0 6.529685,-1.977849 7.901764,-5.25821c2.645694,-6.312421 3.826196,-12.517815 3.818704,-18.324001c-0.034248,-14.388638 -6.933174,-25.56006 -13.293757,-32.927762c-3.010654,-3.470868 -5.959234,-6.180778 -8.297762,-8.123309c-0.288971,-7.089433 0.966449,-14.634799 2.464819,-21.490914z" id="svg_3"/>
    <polygon stroke="null" points="39.805397033691406,61.93449783325195 39.804325103759766,61.93235397338867 39.80325698852539,61.93128204345703 " id="svg_4"/>
    <path stroke="null" d="m48.987196,55.842547c-0.523359,-0.439879 -0.915076,-0.797347 -1.160167,-1.029595c-0.124151,-0.116659 -0.210842,-0.20121 -0.259004,-0.249372c-0.023546,-0.022476 -0.037459,-0.03853 -0.044951,-0.043881c-2.044205,-2.124475 -5.424101,-2.195113 -7.554998,-0.153048c-2.134108,2.040995 -2.207956,5.427312 -0.16375,7.56463c0.232247,0.237599 3.158351,3.271799 8.263513,6.354161c5.09767,3.067378 12.473934,6.23001 21.460947,6.238573c0.021405,0 0.04174,0 0.062075,0c6.710559,0.00107 14.225958,-1.856909 21.83875,-6.567144c2.516192,-1.551884 3.297485,-4.849369 1.744531,-7.363421c-1.549743,-2.515122 -4.847229,-3.297485 -7.36235,-1.744531c-6.083384,3.735224 -11.465745,4.959606 -16.283006,4.971379c-6.399112,0.009632 -11.953786,-2.298928 -15.93624,-4.703813c-1.986411,-1.194415 -3.5597,-2.398463 -4.605349,-3.27394z" id="svg_5"/>
    <circle stroke="null" cx="64.691189" cy="25.219064" r="18.729631" id="svg_6"/>
   </g>
   <g stroke="null" id="svg_7">
    <circle stroke="null" cx="133.471746" cy="25.019995" r="17.124235" id="svg_8"/>
    <path stroke="null" d="m117.888693,63.066833c-2.577197,-3.325312 -1.98106,-8.040898 1.285388,-10.573144c1.324988,-1.028524 2.91112,-1.572219 4.586084,-1.572219c2.320334,0 4.471566,1.046719 5.901439,2.874731l0.178734,0.210842c0.185156,0.217264 0.479479,0.541554 0.876547,0.942903c0.766309,0.779153 2.026011,1.946811 3.676359,3.11233c4.116238,2.91326 8.481847,4.387015 12.979099,4.387015c4.622473,-0.011773 9.25993,-1.491949 14.199201,-4.526149c0.466635,-0.286831 0.965379,-0.505165 1.478035,-0.683899c1.436295,-1.937179 2.828709,-4.128011 4.179383,-6.622798c1.405257,-2.601813 0.435598,-5.848996 -2.163005,-7.253183c-2.598603,-1.404187 -5.845785,-0.436668 -7.252113,2.163005c-2.809445,5.203627 -5.54076,8.314886 -7.823635,10.023028c-2.30535,1.702791 -4.074497,2.14481 -5.811537,2.167286c-2.261469,0.052443 -4.85472,-1.064913 -7.195389,-2.681013c-3.116611,-6.371285 -7.424426,-10.470399 -13.311952,-10.470399c-20.253688,0 -27.82474,45.275405 -29.287792,68.210106c-0.08134,1.284318 4.222194,2.46696 10.325913,3.382036c-1.17408,7.879288 -4.741272,18.843079 -14.279471,32.442932c-2.210096,3.142297 -1.45556,7.48329 1.687807,9.694457c1.216891,0.855141 2.613586,1.266123 3.995298,1.266123c2.188691,0 4.343134,-1.029595 5.698089,-2.956071c10.897435,-15.464254 15.332611,-28.855405 16.758204,-39.021849c1.485527,0.098464 2.973195,0.180875 4.443739,0.245091c1.161237,4.937131 2.030292,11.042991 2.031362,18.269417c0,4.5711 -0.349977,9.601344 -1.196556,15.08645c-0.585435,3.798369 2.016379,7.350578 5.813678,7.936012c0.360679,0.055654 0.719218,0.08241 1.073475,0.08241c3.373474,0 6.333826,-2.459468 6.865748,-5.893947c0.953606,-6.1872 1.356025,-11.93131 1.356025,-17.210926c0,-6.927823 -0.695672,-13.026191 -1.722056,-18.276909c4.075568,-0.280409 6.75337,-0.879758 6.816515,-1.876174c0.644299,-10.095806 0.695672,-25.135165 -1.175151,-38.809936c-7.419074,-0.966449 -13.293757,-4.117308 -17.140288,-6.840061c-4.314237,-3.065238 -6.924612,-6.074822 -7.84718,-7.227497z" id="svg_9"/>
    <path stroke="null" d="m147.455824,75.297817c6.335967,0 13.461789,-1.869752 20.854107,-6.440853c2.516192,-1.551884 3.297485,-4.849369 1.747742,-7.363421c-1.549743,-2.516192 -4.848299,-3.297485 -7.363421,-1.747742c-5.968866,3.667797 -10.993758,4.834385 -15.296222,4.845088c-5.914282,0.005351 -10.762581,-2.322474 -14.238801,-4.780872c-1.726337,-1.221172 -3.075941,-2.456257 -3.96319,-3.35528c-0.44416,-0.450581 -0.772731,-0.814471 -0.977152,-1.04993c-0.100605,-0.116659 -0.172313,-0.20121 -0.210842,-0.247231c-0.007492,-0.011773 -0.014984,-0.020335 -0.020335,-0.025686c-0.010703,-0.013913 -0.011773,-0.016054 -0.011773,-0.016054l-0.00107,0c-1.815169,-2.318193 -5.164027,-2.737737 -7.491852,-0.93113c-2.337458,1.811958 -2.763423,5.173659 -0.951465,7.508977c0.222615,0.277199 2.757002,3.526522 7.44155,6.853975c4.666354,3.304977 11.635917,6.742667 20.42386,6.749089c0.020335,0.00107 0.04067,0.00107 0.058865,0.00107z" id="svg_10"/>
   </g>
   <g stroke="null" id="svg_11">
    <circle stroke="null" cx="217.764719" cy="23.642565" r="18.729631" id="svg_12"/>
    <path stroke="null" d="m229.624321,63.321556c4.509025,0.741693 11.260254,1.5765 18.874117,1.581851c7.92531,-0.007492 16.810647,-0.893671 25.171554,-3.961049c2.774126,-1.021032 4.192227,-4.098043 3.173335,-6.868958c-1.022103,-2.775196 -4.098043,-4.194367 -6.870029,-3.173335c-6.628149,2.450906 -14.373654,3.308188 -21.47379,3.300696c-6.088736,0.002141 -11.694782,-0.608981 -15.739312,-1.221172c-2.0228,-0.303955 -3.656024,-0.608981 -4.766959,-0.833736c-0.437738,-0.087762 -0.770591,-0.158399 -1.039227,-0.218334c-0.00107,-0.00107 -0.003211,-0.002141 -0.004281,-0.002141c-7.36128,-2.473382 -14.723631,-4.945693 -22.084911,-7.419074c-0.399209,-0.154118 -4.147275,-1.775569 -7.60209,-5.139411c-3.606792,-3.56077 -6.934245,-8.601717 -6.970634,-16.698269c0,-3.934293 0.821963,-8.671284 3.050254,-14.366162c1.077756,-2.75058 -0.279339,-5.856488 -3.029919,-6.933174c-2.75165,-1.077756 -5.857558,0.279339 -6.935315,3.03206c-2.640343,6.738386 -3.788737,12.827122 -3.788737,18.267277c-0.03853,11.702274 5.443366,20.004316 10.727262,24.857967c2.644624,2.454117 5.235735,4.160119 7.216794,5.275334c-2.853326,16.688637 -2.570776,33.914546 0.867985,50.496156c0.011773,0.056724 0.035319,0.104886 0.048162,0.158399c0.075989,1.089529 0.127361,2.317123 0.127361,3.669937c-0.028897,9.170027 -2.201534,23.669973 -14.040802,38.867731c-2.91219,3.725591 -2.250767,9.107952 1.479106,12.019072c1.564727,1.222242 3.419496,1.813028 5.261421,1.813028c2.5483,0 5.068773,-1.13127 6.758721,-3.294275c14.612323,-18.686821 17.695756,-37.481738 17.666858,-49.405556c-0.00107,-1.349604 -0.04067,-2.606094 -0.103816,-3.779104c0.207631,-0.069567 0.416333,-0.139134 0.623964,-0.208702c1.324988,1.430944 3.096276,3.56077 4.787294,6.282453c3.099486,4.977801 5.908931,11.733311 5.908931,20.080305c-0.005351,5.219681 -1.076686,11.159649 -4.122659,18.008273c-1.926476,4.318518 0.016054,9.38194 4.335642,11.306276c1.13234,0.505165 2.314982,0.742764 3.47943,0.742764c3.278221,0 6.406604,-1.892228 7.827916,-5.078406c3.96533,-8.886407 5.613538,-17.341498 5.603906,-24.979977c0,-13.115023 -4.748764,-23.522276 -9.375518,-30.496121c-1.437365,-2.166216 -2.866169,-4.022055 -4.168681,-5.565376c-1.948952,-9.902088 -2.233642,-20.118835 -0.873336,-30.117247z" id="svg_13"/>
   </g>
  </g>
 </g>
</svg>